{"title":"Snow White and the Huntsman 2012 CAM READNFO XviD-26k","uid":7320081,"size":1480162546,"categoryP":"video","categoryS":"movies","magnet":"?xt=urn:btih:d833d5919559eb526d9b505537ed9ebb9b6b6c7d&amp;dn=Snow+White+and+the+Huntsman+2012+CAM+READNFO+XviD-26k&amp;tr=udp%3A%2F%2Ftracker.openbittorrent.com%3A80&amp;tr=udp%3A%2F%2Fopen.demonii.com%3A1337&amp;tr=udp%3A%2F%2Ftracker.coppersurfer.tk%3A6969&amp;tr=udp%3A%2F%2Fexodus.desync.com%3A6969","seeders":0,"leechers":1,"uploader":"HeroMaster","files":-1,"time":1338592461,"description":"Snow White and the Huntsman 2012 CAM READNFO XviD-26k\n &lt;a href=&quot;\nhttp://www.imdb.com/title/tt1735898/&quot; rel=&quot;nofollow&quot; target=&quot;_NEW&quot;&gt;\nhttp://www.imdb.com/title/tt1735898/&lt;/a&gt;\n\nPlot:\n\nIn a twist to the fairy tale, the Huntsman ordered to take\nSnow White into the woods to be killed winds up becoming her\nprotector and mentor in a quest to vanquish the Evil Queen.\n\nSources - VIDEO: ....Thanks\nAUDIO: ....Thanks\n\nVideo\nID : 0\nFormat : MPEG-4 Visual\nFormat profile : Advanced Simple@L5\nFormat settings, BVOP : 2\nFormat settings, QPel : No\nFormat settings, GMC : No warppoints\nFormat settings, Matrix : Default (H.263)\nCodec ID : XVID\nCodec ID/Hint : XviD\nDuration : 1h 57mn\nBit rate : 1 300 Kbps\nWidth : 720 pixels\nHeight : 304 pixels\nDisplay aspect ratio : 2.35:1\nFrame rate : 25.000 fps\nColor space : YUV\nChroma subsampling : 4:2:0\nBit depth : 8 bits\nScan type : Progressive\nCompression mode : Lossy\nBits/(Pixel*Frame) : 0.238\nStream size : 1.06 GiB (80%)\nWriting library : XviD 63\n\nAudio\nID : 1\nFormat : MPEG Audio\nFormat version : Version 1\nFormat profile : Layer 3\nMode : Joint stereo\nMode extension : MS Stereo\nCodec ID : 55\nCodec ID/Hint : MP3\nDuration : 1h 57mn\nBit rate mode : Constant\nBit rate : 320 Kbps\nChannel(s) : 2 channels\nSampling rate : 44.1 KHz\nCompression mode : Lossy\nStream size : 268 MiB (20%)\nAlignment : Split accross interleaves\nInterleave, duration : 6552 ms (163.80 video frames)\nWriting library : LAME3.99r\nEncoding settings : -m j -V 4 -q 2 -lowpass 20.5\n\nNotes -\n\nThe video needed some crop for obvious reasons which i will not mention.... so \nthat been said,the video and audio is very decent for a first cam and ithas arabic subs at the bottom...\nso we denoised, cropped and rotated the video then synced the audio back to the encode. enjoy! until new source\n\n\nPoster:\n\n &lt;a href=&quot;\nhttp://i.imgur.com/1MRs7.jpg&quot; rel=&quot;nofollow&quot; target=&quot;_NEW&quot;&gt;\nhttp://i.imgur.com/1MRs7.jpg&lt;/a&gt;\n\n\nScreens:\n\n &lt;a href=&quot;\nhttp://i.imgur.com/33xx9.png&quot; rel=&quot;nofollow&quot; target=&quot;_NEW&quot;&gt;\nhttp://i.imgur.com/33xx9.png&lt;/a&gt;\n\n &lt;a href=&quot;\nhttp://i.imgur.com/Yyocc.png&quot; rel=&quot;nofollow&quot; target=&quot;_NEW&quot;&gt;\nhttp://i.imgur.com/Yyocc.png&lt;/a&gt;\n\n &lt;a href=&quot;\nhttp://i.imgur.com/RMJGM.png&quot; rel=&quot;nofollow&quot; target=&quot;_NEW&quot;&gt;\nhttp://i.imgur.com/RMJGM.png&lt;/a&gt;\n\n\nENJOY!","torrent":{"xt":"urn:btih:d833d5919559eb526d9b505537ed9ebb9b6b6c7d","amp;dn":"Snow+White+and+the+Huntsman+2012+CAM+READNFO+XviD-26k","amp;tr":["udp%3A%2F%2Ftracker.openbittorrent.com%3A80","udp%3A%2F%2Fopen.demonii.com%3A1337","udp%3A%2F%2Ftracker.coppersurfer.tk%3A6969","udp%3A%2F%2Fexodus.desync.com%3A6969"],"infoHash":"d833d5919559eb526d9b505537ed9ebb9b6b6c7d","infoHashBuffer":{"type":"Buffer","data":[216,51,213,145,149,89,235,82,109,155,80,85,55,237,158,187,155,107,108,125]},"announce":[],"urlList":[]}}